<svg xmlns="http://www.w3.org/2000/svg" viewBox="0 0 483.86 330.7"><defs><style>.cls-1{fill:none;}.cls-1,.cls-3,.cls-4,.cls-5,.cls-6{stroke:#fff;stroke-miterlimit:10;stroke-width:0.75px;}.cls-12,.cls-2,.cls-8{font-size:14px;}.cls-12,.cls-2,.cls-7,.cls-8{fill:#fff;}.cls-12,.cls-2,.cls-7{font-family:Avenir-Light, Avenir;}.cls-2,.cls-8{letter-spacing:0.05em;}.cls-3{fill:#229eba;}.cls-4{fill:#60c7d8;}.cls-5{fill:#c37cb4;}.cls-6{fill:#a457a2;}.cls-7{font-size:20px;letter-spacing:0.05em;}.cls-8{font-family:Avenir-Medium, Avenir;}.cls-9{letter-spacing:0.09em;}.cls-10{letter-spacing:0.13em;}.cls-11{letter-spacing:0.13em;}.cls-12{letter-spacing:0.05em;}</style></defs><title>Asset 10</title><g id="Layer_2" data-name="Layer 2"><g id="Layer_1-2" data-name="Layer 1"><line class="cls-1" x1="60.18" y1="308.68" x2="483.48" y2="308.68"/><line class="cls-1" x1="60.18" y1="308.68" x2="60.18" y2="301.21"/><line class="cls-1" x1="483.48" y1="308.68" x2="483.48" y2="301.21"/><text class="cls-2" transform="translate(59.39 324.12)">AGE</text><text></text><text></text><text></text><text></text><text></text><text></text><text></text><text></text><line class="cls-1" x1="60.18" y1="308.68" x2="60.18" y2="9.88"/><line class="cls-1" x1="60.18" y1="308.68" x2="70.77" y2="308.68"/><line class="cls-1" x1="60.18" y1="271.33" x2="70.77" y2="271.33"/><line class="cls-1" x1="60.18" y1="233.98" x2="70.77" y2="233.98"/><line class="cls-1" x1="60.18" y1="196.63" x2="70.77" y2="196.63"/><line class="cls-1" x1="60.18" y1="159.28" x2="70.77" y2="159.28"/><line class="cls-1" x1="60.18" y1="121.93" x2="70.77" y2="121.93"/><line class="cls-1" x1="60.18" y1="84.58" x2="70.77" y2="84.58"/><line class="cls-1" x1="60.18" y1="47.23" x2="70.77" y2="47.23"/><line class="cls-1" x1="60.18" y1="9.88" x2="70.77" y2="9.88"/><rect class="cls-3" x="360.73" y="237.71" width="76.19" height="70.96"/><rect class="cls-4" x="276.07" y="211.57" width="76.19" height="97.11"/><rect class="cls-5" x="191.41" y="189.16" width="76.19" height="119.52"/><rect class="cls-6" x="106.75" y="39.76" width="76.19" height="268.92"/><text class="cls-7" transform="translate(121.8 63.47)">7.2%</text><text class="cls-7" transform="translate(206.62 211.83)">3.2%</text><text class="cls-7" transform="translate(291.77 232.47)">2.6%</text><text class="cls-7" transform="translate(376.46 259.35)">1.9%</text><text class="cls-8" transform="translate(123.31 324.26)">1<tspan class="cls-9" x="8.48" y="0">8</tspan><tspan class="cls-10" x="17.53" y="-2">–</tspan><tspan x="26.35" y="0">29</tspan></text><text class="cls-8" transform="translate(207.69 324.26)">3<tspan class="cls-11" x="8.48" y="0">0</tspan><tspan class="cls-10" x="18.09" y="-2">–</tspan><tspan x="26.91" y="0">49</tspan></text><text class="cls-8" transform="translate(292.69 324.26)">5<tspan class="cls-11" x="8.48" y="0">0</tspan><tspan class="cls-10" x="18.09" y="-2">–</tspan><tspan x="26.91" y="0">64</tspan></text><text class="cls-8" transform="translate(385.97 324.26)">65+</text><text class="cls-12" transform="translate(0 306.77)">% LGBT</text></g></g></svg>