<svg xmlns="http://www.w3.org/2000/svg" viewBox="0 0 186.72 99.25"><defs><style>.cls-1{fill:#231f20;}.cls-1,.cls-2{stroke:#fff;stroke-miterlimit:10;stroke-width:0.75px;}.cls-2{fill:#a457a2;}</style></defs><title>Asset 12</title><g id="Layer_2" data-name="Layer 2"><g id="Layer_1-2" data-name="Layer 1"><path class="cls-1" d="M39.32,29.44V53.73a3.81,3.81,0,0,1-7.62,0V32.66H29.61v61.8a4.42,4.42,0,0,1-4.17,4.4l.11,0-.13,0H25a4.43,4.43,0,0,1-2.88-1.28,4.39,4.39,0,0,1-1.29-3.12V58H19V94.46a4.42,4.42,0,0,1-4.17,4.4h-.49a4.4,4.4,0,0,1-4.17-4.4V32.66H8V53.73a3.81,3.81,0,0,1-7.61,0V29.44a3.9,3.9,0,0,1,.41-1.73,8.26,8.26,0,0,1,8-6.34H31.06A8.25,8.25,0,0,1,39.29,29a.53.53,0,0,1,0,.13s0,.07,0,.1S39.32,29.38,39.32,29.44Z"/><rect class="cls-1" x="11.46" y="1.87" width="16.77" height="16.77" rx="8.25" ry="8.25"/><path class="cls-1" d="M88.33,29.44V53.73a3.81,3.81,0,0,1-7.62,0V32.66H78.62v61.8a4.42,4.42,0,0,1-4.17,4.4l.11,0-.13,0H74a4.43,4.43,0,0,1-2.88-1.28,4.39,4.39,0,0,1-1.29-3.12V58H68V94.46a4.42,4.42,0,0,1-4.17,4.4H63.3a4.4,4.4,0,0,1-4.17-4.4V32.66H57V53.73a3.81,3.81,0,0,1-7.61,0V29.44a3.9,3.9,0,0,1,.41-1.73,8.26,8.26,0,0,1,8-6.34H80.07A8.25,8.25,0,0,1,88.3,29a.53.53,0,0,1,0,.13s0,.07,0,.1S88.33,29.38,88.33,29.44Z"/><rect class="cls-1" x="60.47" y="1.87" width="16.77" height="16.77" rx="8.25" ry="8.25"/><path class="cls-1" d="M137.34,29.44V53.73a3.81,3.81,0,0,1-7.62,0V32.66h-2.09v61.8a4.42,4.42,0,0,1-4.17,4.4l.11,0-.13,0H123a4.43,4.43,0,0,1-2.88-1.28,4.39,4.39,0,0,1-1.29-3.12V58H117V94.46a4.42,4.42,0,0,1-4.17,4.4h-.48a4.4,4.4,0,0,1-4.18-4.4V32.66H106V53.73a3.81,3.81,0,0,1-7.61,0V29.44a3.9,3.9,0,0,1,.41-1.73,8.26,8.26,0,0,1,8-6.34h22.24A8.25,8.25,0,0,1,137.31,29a.53.53,0,0,1,0,.13s0,.07,0,.1S137.34,29.38,137.34,29.44Z"/><rect class="cls-1" x="109.48" y="1.87" width="16.77" height="16.77" rx="8.25" ry="8.25"/><path class="cls-2" d="M186.35,27.94V52.23a3.81,3.81,0,0,1-7.62,0V31.16h-2.09V93a4.41,4.41,0,0,1-4.17,4.4l.11,0-.12,0H172a4.4,4.4,0,0,1-4.18-4.4V56.5H166V93a4.4,4.4,0,0,1-4.17,4.4h-.48a4.4,4.4,0,0,1-4.18-4.4V31.16H155V52.23a3.81,3.81,0,0,1-7.61,0V27.94a3.83,3.83,0,0,1,.41-1.72,8.26,8.26,0,0,1,8-6.35h22.24a8.25,8.25,0,0,1,8.23,7.65.53.53,0,0,1,0,.13s0,.07,0,.11S186.35,27.88,186.35,27.94Z"/><rect class="cls-2" x="158.49" y="0.38" width="16.77" height="16.77" rx="8.25" ry="8.25"/></g></g></svg>